<?xml version="1.0" encoding="UTF-8"?>
<!DOCTYPE svg PUBLIC "-//W3C//DTD SVG 1.1//EN" "http://www.w3.org/Graphics/SVG/1.1/DTD/svg11.dtd">
<svg xmlns="http://www.w3.org/2000/svg" version="1.1" width="400px" height="889px" style="shape-rendering:geometricPrecision; text-rendering:geometricPrecision; image-rendering:optimizeQuality; fill-rule:evenodd; clip-rule:evenodd" xmlns:xlink="http://www.w3.org/1999/xlink">
<g><path style="opacity:1" fill="#fdfdfd" d="M -0.5,-0.5 C 132.833,-0.5 266.167,-0.5 399.5,-0.5C 399.5,295.833 399.5,592.167 399.5,888.5C 396.167,888.5 392.833,888.5 389.5,888.5C 389.667,840.166 389.5,791.832 389,743.5C 386.833,737.333 382.667,733.167 376.5,731C 269.167,730.333 161.833,730.333 54.5,731C 48.3333,733.167 44.1667,737.333 42,743.5C 41.5,791.832 41.3333,840.166 41.5,888.5C 27.5,888.5 13.5,888.5 -0.5,888.5C -0.5,592.167 -0.5,295.833 -0.5,-0.5 Z"/></g>
<g><path style="opacity:1" fill="#f7f7f7" d="M 69.5,6.5 C 166.834,6.33334 264.167,6.5 361.5,7C 382.824,6.06669 393.324,16.2334 393,37.5C 393.667,88.8333 393.667,140.167 393,191.5C 393.324,212.767 382.824,222.933 361.5,222C 264.167,222.667 166.833,222.667 69.5,222C 48.1526,222.985 37.6526,212.819 38,191.5C 37.0477,136.481 37.3811,81.4811 39,26.5C 41.1667,16.3333 47.3333,10.1667 57.5,8C 61.6877,7.82382 65.6877,7.32382 69.5,6.5 Z"/></g>
<g><path style="opacity:1" fill="#fefefe" d="M 54.5,10.5 C 161.834,10.3333 269.167,10.5 376.5,11C 382.667,13.1667 386.833,17.3333 389,23.5C 389.667,84.1667 389.667,144.833 389,205.5C 386.833,211.667 382.667,215.833 376.5,218C 269.167,218.667 161.833,218.667 54.5,218C 48.3333,215.833 44.1667,211.667 42,205.5C 41.3333,144.833 41.3333,84.1667 42,23.5C 44.3531,17.3154 48.5198,12.982 54.5,10.5 Z"/></g>
<g><path style="opacity:1" fill="#151625" d="M 81.5,74.5 C 80.5,74.5 79.5,74.5 78.5,74.5C 78.5,76.5 78.5,78.5 78.5,80.5C 79.5,80.5 80.5,80.5 81.5,80.5C 80.791,81.404 79.791,81.7373 78.5,81.5C 78.1412,83.7659 78.8078,85.5993 80.5,87C 78.1667,87.6667 75.8333,87.6667 73.5,87C 74.7435,85.1303 75.4101,82.9637 75.5,80.5C 75.4101,78.0363 74.7435,75.8697 73.5,74C 76.367,73.1993 79.0336,73.3659 81.5,74.5 Z"/></g>
<g><path style="opacity:1" fill="#1c1019" d="M 182.5,74.5 C 184.817,73.0584 186.984,73.3918 189,75.5C 190.29,77.792 191.957,79.792 194,81.5C 194.667,83.1667 194.667,84.8333 194,86.5C 190.587,81.9242 186.754,77.9242 182.5,74.5 Z"/></g>
<g><path style="opacity:1" fill="#330b24" d="M 271.5,86.5 C 270.504,86.4142 269.671,86.7476 269,87.5C 268.501,82.8452 268.334,78.1785 268.5,73.5C 269.5,73.5 270.5,73.5 271.5,73.5C 271.5,77.8333 271.5,82.1667 271.5,86.5 Z"/></g>
<g><path style="opacity:1" fill="#34151f" d="M 291.5,73.5 C 292.5,73.5 293.5,73.5 294.5,73.5C 294.2,78.0986 294.533,82.5986 295.5,87C 293.833,87.6667 292.167,87.6667 290.5,87C 291.467,82.5986 291.8,78.0986 291.5,73.5 Z"/></g>
<g><path style="opacity:1" fill="#2d1829" d="M 296.5,74.5 C 297.568,73.5655 298.901,73.2322 300.5,73.5C 300.826,77.8839 300.492,82.2172 299.5,86.5C 298.914,86.7093 298.414,87.0426 298,87.5C 297.825,82.9805 297.325,78.6472 296.5,74.5 Z"/></g>
<g><path style="opacity:1" fill="#251416" d="M 81.5,74.5 C 82.5,74.5 83.5,74.5 84.5,74.5C 84.6602,76.1992 84.4935,77.8659 84,79.5C 83.3292,80.2524 82.4959,80.5858 81.5,80.5C 81.5,78.5 81.5,76.5 81.5,74.5 Z"/></g>
<g><path style="opacity:1" fill="#f5f2e3" d="M 81.5,74.5 C 81.5,76.5 81.5,78.5 81.5,80.5C 80.5,80.5 79.5,80.5 78.5,80.5C 78.5,78.5 78.5,76.5 78.5,74.5C 79.5,74.5 80.5,74.5 81.5,74.5 Z"/></g>
<g><path style="opacity:1" fill="#020005" d="M 118.5,78.5 C 119.209,77.596 120.209,77.2627 121.5,77.5C 121.216,80.7766 121.549,83.9433 122.5,87C 121.167,87.6667 119.833,87.6667 118.5,87C 119.817,84.0635 119.817,81.2301 118.5,78.5 Z"/></g>
<g><path style="opacity:1" fill="#1a1e28" d="M 145.5,78.5 C 146.568,77.5655 147.901,77.2322 149.5,77.5C 149.5,80.8333 149.5,84.1667 149.5,87.5C 148.127,87.6567 146.793,87.49 145.5,87C 146.817,84.0635 146.817,81.2301 145.5,78.5 Z"/></g>
<g><path style="opacity:1" fill="#360d24" d="M 208.5,78.5 C 209.568,77.5655 210.901,77.2322 212.5,77.5C 212.216,80.7766 212.549,83.9433 213.5,87C 211.833,87.6667 210.167,87.6667 208.5,87C 209.817,84.0635 209.817,81.2301 208.5,78.5 Z"/></g>
<g><path style="opacity:1" fill="#160a0a" d="M 279.5,78.5 C 280.209,77.596 281.209,77.2627 282.5,77.5C 281.989,81.0297 282.656,84.1963 284.5,87C 283.216,87.6838 282.049,87.5171 281,86.5C 280.817,83.6353 280.317,80.9686 279.5,78.5 Z"/></g>
<g><path style="opacity:1" fill="#360d26" d="M 284.5,78.5 C 285.568,77.5655 286.901,77.2322 288.5,77.5C 288.216,80.7766 288.549,83.9433 289.5,87C 288.207,87.49 286.873,87.6567 285.5,87.5C 285.81,84.2869 285.477,81.2869 284.5,78.5 Z"/></g>
<g><path style="opacity:1" fill="#10090b" d="M 337.5,78.5 C 338.209,77.596 339.209,77.2627 340.5,77.5C 339.989,81.0297 340.656,84.1963 342.5,87C 341.216,87.6838 340.049,87.5171 339,86.5C 338.817,83.6353 338.317,80.9686 337.5,78.5 Z"/></g>
<g><path style="opacity:1" fill="#2a1726" d="M 342.5,78.5 C 343.568,77.5655 344.901,77.2322 346.5,77.5C 346.5,80.8333 346.5,84.1667 346.5,87.5C 345.5,87.5 344.5,87.5 343.5,87.5C 343.81,84.2869 343.477,81.2869 342.5,78.5 Z"/></g>
<g><path style="opacity:1" fill="#000000" d="M 349.5,78.5 C 350.209,77.596 351.209,77.2627 352.5,77.5C 352.216,80.7766 352.549,83.9433 353.5,87C 352.167,87.6667 350.833,87.6667 349.5,87C 350.817,84.0635 350.817,81.2301 349.5,78.5 Z"/></g>
<g><path style="opacity:1" fill="#291927" d="M 123.5,78.5 C 124.542,77.2089 125.708,77.2089 127,78.5C 127.498,81.4816 127.665,84.4816 127.5,87.5C 126.127,87.6567 124.793,87.49 123.5,87C 124.817,84.0635 124.817,81.2301 123.5,78.5 Z"/></g>
<g><path style="opacity:1" fill="#0f0715" d="M 128.5,78.5 C 129.542,77.2089 130.708,77.2089 132,78.5C 132.218,81.4262 132.718,84.2595 133.5,87C 129.383,88.109 128.383,86.609 130.5,82.5C 130.415,80.6672 129.748,79.3339 128.5,78.5 Z"/></g>
<g><path style="opacity:1" fill="#361329" d="M 150.5,78.5 C 151.542,77.2089 152.708,77.2089 154,78.5C 154.218,81.4262 154.718,84.2595 155.5,87C 153.833,87.6667 152.167,87.6667 150.5,87C 151.817,84.0635 151.817,81.2301 150.5,78.5 Z"/></g>
<g><path style="opacity:1" fill="#160d19" d="M 200.5,78.5 C 204.572,76.7207 206.239,78.2207 205.5,83C 205.167,84.5 204.833,86 204.5,87.5C 203.893,87.3764 203.56,87.0431 203.5,86.5C 203.806,83.6146 203.473,80.9479 202.5,78.5C 201.833,78.5 201.167,78.5 200.5,78.5 Z"/></g>
<g><path style="opacity:1" fill="#0c090e" d="M 213.5,78.5 C 215.089,77.3789 216.756,77.5456 218.5,79C 217.167,81.6667 217.167,84.3333 218.5,87C 214.383,88.109 213.383,86.609 215.5,82.5C 215.415,80.6672 214.748,79.3339 213.5,78.5 Z"/></g>
<g><path style="opacity:1" fill="#361329" d="M 219.5,78.5 C 220.542,77.2089 221.708,77.2089 223,78.5C 223.218,81.4262 223.718,84.2595 224.5,87C 222.833,87.6667 221.167,87.6667 219.5,87C 220.817,84.0635 220.817,81.2301 219.5,78.5 Z"/></g>
<g><path style="opacity:1" fill="#24141b" d="M 236.5,77.5 C 238.465,77.9483 238.798,78.9483 237.5,80.5C 236.614,79.675 236.281,78.675 236.5,77.5 Z"/></g>
<g><path style="opacity:1" fill="#160d19" d="M 329.5,78.5 C 333.572,76.7207 335.239,78.2207 334.5,83C 334.167,84.5 333.833,86 333.5,87.5C 332.893,87.3764 332.56,87.0431 332.5,86.5C 332.806,83.6146 332.473,80.9479 331.5,78.5C 330.833,78.5 330.167,78.5 329.5,78.5 Z"/></g>
<g><path style="opacity:1" fill="#442a2f" d="M 110.5,77.5 C 114.349,77.0193 116.349,78.686 116.5,82.5C 114.833,82.5 113.167,82.5 111.5,82.5C 111.137,84.9115 112.137,86.4115 114.5,87C 109.008,87.4859 107.175,84.9859 109,79.5C 109.717,78.9558 110.217,78.2891 110.5,77.5 Z"/></g>
<g><path style="opacity:1" fill="#190400" d="M 137.5,78.5 C 137.5,81.1667 137.5,83.8333 137.5,86.5C 134.941,83.7565 134.941,81.0898 137.5,78.5 Z"/></g>
<g><path style="opacity:1" fill="#393046" d="M 137.5,86.5 C 137.5,83.8333 137.5,81.1667 137.5,78.5C 141.195,76.8231 143.195,78.1564 143.5,82.5C 143.195,86.8436 141.195,88.1769 137.5,86.5 Z"/></g>
<g><path style="opacity:1" fill="#f9faf2" d="M 138.5,78.5 C 139.748,79.3339 140.415,80.6672 140.5,82.5C 140.167,83.8333 139.833,85.1667 139.5,86.5C 138.52,83.9135 138.187,81.2469 138.5,78.5 Z"/></g>
<g><path style="opacity:1" fill="#37142a" d="M 200.5,78.5 C 200.719,79.675 200.386,80.675 199.5,81.5C 198.202,79.9483 198.535,78.9483 200.5,78.5 Z"/></g>
<g><path style="opacity:1" fill="#1d1a2a" d="M 231.5,78.5 C 233.104,79.287 233.771,80.6203 233.5,82.5C 231.833,82.5 230.167,82.5 228.5,82.5C 228.137,84.9115 229.137,86.4115 231.5,87C 228.173,87.5125 226.507,86.0125 226.5,82.5C 226.638,78.6563 228.305,77.323 231.5,78.5 Z"/></g>
<g><path style="opacity:1" fill="#f0e1cc" d="M 231.5,78.5 C 231.5,79.5 231.5,80.5 231.5,81.5C 228.038,81.1927 228.038,80.1927 231.5,78.5 Z"/></g>
<g><path style="opacity:1" fill="#361c26" d="M 271.5,86.5 C 272.5,86.5 273.5,86.5 274.5,86.5C 274.988,83.2893 274.321,80.456 272.5,78C 276.977,77.8355 278.477,80.0022 277,84.5C 275.827,87.4103 273.994,88.0769 271.5,86.5 Z"/></g>
<g><path style="opacity:1" fill="#2f1423" d="M 301.5,78.5 C 305.342,77.5141 306.842,79.1808 306,83.5C 305.581,84.6721 304.915,85.6721 304,86.5C 304.053,83.3248 303.22,80.6581 301.5,78.5 Z"/></g>
<g><path style="opacity:1" fill="#2e2235" d="M 310.5,77.5 C 312.262,77.3573 313.929,77.6906 315.5,78.5C 316.833,81.5 316.833,84.5 315.5,87.5C 314.914,87.2907 314.414,86.9574 314,86.5C 313.818,83.7737 313.318,81.1071 312.5,78.5C 310.121,82.2799 309.454,81.9466 310.5,77.5 Z"/></g>
<g><path style="opacity:1" fill="#28212d" d="M 320.5,77.5 C 322.765,77.4406 323.098,78.2739 321.5,80C 322.996,81.3307 324.329,82.8307 325.5,84.5C 325.192,85.3081 324.692,85.9747 324,86.5C 323.333,84.5 322,83.1667 320,82.5C 319.36,80.735 319.527,79.0683 320.5,77.5 Z"/></g>
<g><path style="opacity:1" fill="#37142a" d="M 329.5,78.5 C 329.719,79.675 329.386,80.675 328.5,81.5C 327.202,79.9483 327.535,78.9483 329.5,78.5 Z"/></g>
<g><path style="opacity:1" fill="#381d22" d="M 92.5,78.5 C 91.5,78.5 90.5,78.5 89.5,78.5C 89.5,81.1667 89.5,83.8333 89.5,86.5C 90.5,86.5 91.5,86.5 92.5,86.5C 88.917,87.7133 86.917,86.2133 86.5,82C 87.0483,77.9096 89.0483,76.743 92.5,78.5 Z"/></g>
<g><path style="opacity:1" fill="#dbe8dd" d="M 92.5,78.5 C 92.5,81.1667 92.5,83.8333 92.5,86.5C 91.5,86.5 90.5,86.5 89.5,86.5C 89.5,83.8333 89.5,81.1667 89.5,78.5C 90.5,78.5 91.5,78.5 92.5,78.5 Z"/></g>
<g><path style="opacity:1" fill="#1d040c" d="M 92.5,78.5 C 93.9931,79.3121 94.6598,80.6455 94.5,82.5C 94.6598,84.3545 93.9931,85.6879 92.5,86.5C 92.5,83.8333 92.5,81.1667 92.5,78.5 Z"/></g>
<g><path style="opacity:1" fill="#e7f8f5" d="M 111.5,78.5 C 113.465,78.9483 113.798,79.9483 112.5,81.5C 111.614,80.675 111.281,79.675 111.5,78.5 Z"/></g>
<g><path style="opacity:1" fill="#341e28" d="M 97.5,73.5 C 98.5,73.5 99.5,73.5 100.5,73.5C 100.183,76.5719 100.516,79.5719 101.5,82.5C 103.98,81.5846 104.647,80.0846 103.5,78C 104.5,77.3333 105.5,77.3333 106.5,78C 103.566,81.4201 103.9,84.4201 107.5,87C 106.207,87.49 104.873,87.6567 103.5,87.5C 103.778,85.6536 103.111,84.3202 101.5,83.5C 100.269,84.6507 100.269,85.8173 101.5,87C 100.207,87.49 98.8734,87.6567 97.5,87.5C 97.5,82.8333 97.5,78.1667 97.5,73.5 Z"/></g>
<g><path style="opacity:1" fill="#aa7115" d="M 202.5,78.5 C 203.473,80.9479 203.806,83.6146 203.5,86.5C 201.859,83.9538 201.525,81.2871 202.5,78.5 Z"/></g>
<g><path style="opacity:1" fill="#aa7115" d="M 331.5,78.5 C 332.473,80.9479 332.806,83.6146 332.5,86.5C 330.859,83.9538 330.525,81.2871 331.5,78.5 Z"/></g>
<g><path style="opacity:1" fill="#27170f" d="M 198.5,83.5 C 199.586,83.62 200.253,84.2867 200.5,85.5C 200.167,86.1667 199.833,86.8333 199.5,87.5C 198.571,86.3112 198.238,84.9778 198.5,83.5 Z"/></g>
<g><path style="opacity:1" fill="#27170f" d="M 327.5,83.5 C 328.586,83.62 329.253,84.2867 329.5,85.5C 329.167,86.1667 328.833,86.8333 328.5,87.5C 327.571,86.3112 327.238,84.9778 327.5,83.5 Z"/></g>
<g><path style="opacity:1" fill="#37152b" d="M 310.5,82.5 C 311.239,82.369 311.906,82.5357 312.5,83C 311.91,84.5095 311.244,86.0095 310.5,87.5C 308.07,85.9626 308.07,84.296 310.5,82.5 Z"/></g>
<g><path style="opacity:1" fill="#24141b" d="M 236.5,84.5 C 238.465,84.9483 238.798,85.9483 237.5,87.5C 236.614,86.675 236.281,85.675 236.5,84.5 Z"/></g>
<g><path style="opacity:1" fill="#787878" d="M 66.5,159.5 C 119.168,159.333 171.834,159.5 224.5,160C 225.643,166.418 225.81,172.918 225,179.5C 172.237,180.664 119.404,180.831 66.5,180C 65.1842,173.167 65.1842,166.334 66.5,159.5 Z"/></g>
<g><path style="opacity:1" fill="#e1ddd9" d="M 67.5,160.5 C 119.501,160.333 171.501,160.5 223.5,161C 224.641,166.75 224.807,172.584 224,178.5C 171.904,179.664 119.737,179.831 67.5,179C 66.1862,172.834 66.1862,166.667 67.5,160.5 Z"/></g>
<g><path style="opacity:1" fill="#23649b" d="M 105.5,164.5 C 107.324,167.773 107.491,171.106 106,174.5C 105.502,171.183 105.335,167.85 105.5,164.5 Z"/></g>
<g><path style="opacity:1" fill="#33527d" d="M 164.5,168.5 C 163.5,168.5 162.5,168.5 161.5,168.5C 161.5,170.167 161.5,171.833 161.5,173.5C 162.5,173.5 163.5,173.5 164.5,173.5C 163.432,174.434 162.099,174.768 160.5,174.5C 159.887,169.697 160.22,167.363 161.5,167.5C 162.791,167.263 163.791,167.596 164.5,168.5 Z"/></g>
<g><path style="opacity:1" fill="#335387" d="M 123.5,167.5 C 124.008,169.842 125.008,172.009 126.5,174C 125.552,174.483 124.552,174.649 123.5,174.5C 123.5,172.167 123.5,169.833 123.5,167.5 Z"/></g>
<g><path style="opacity:1" fill="#446b9f" d="M 207.5,167.5 C 208.008,169.842 209.008,172.009 210.5,174C 209.552,174.483 208.552,174.649 207.5,174.5C 207.5,172.167 207.5,169.833 207.5,167.5 Z"/></g>
<g><path style="opacity:1" fill="#3d599a" d="M 75.5,165.5 C 76.0431,165.56 76.3764,165.893 76.5,166.5C 75.8108,168.444 75.3108,170.444 75,172.5C 74.2967,170.071 74.4634,167.738 75.5,165.5 Z"/></g>
<g><path style="opacity:1" fill="#410935" d="M 130.5,165.5 C 131.267,166.172 131.934,167.005 132.5,168C 131.68,170.333 131.347,172.5 131.5,174.5C 130.144,171.429 129.811,168.429 130.5,165.5 Z"/></g>
<g><path style="opacity:1" fill="#175885" d="M 137.5,168.5 C 137.56,167.957 137.893,167.624 138.5,167.5C 139.221,169.686 139.887,171.853 140.5,174C 140.167,174.167 139.833,174.333 139.5,174.5C 138.831,172.369 138.165,170.369 137.5,168.5 Z"/></g>
<g><path style="opacity:1" fill="#e3dfd2" d="M 164.5,168.5 C 164.5,170.167 164.5,171.833 164.5,173.5C 163.5,173.5 162.5,173.5 161.5,173.5C 161.5,171.833 161.5,170.167 161.5,168.5C 162.5,168.5 163.5,168.5 164.5,168.5 Z"/></g>
<g><path style="opacity:1" fill="#4b7db7" d="M 84.5,164.5 C 85.404,165.209 85.7373,166.209 85.5,167.5C 89.5,167.833 89.5,168.167 85.5,168.5C 85.6621,170.527 85.4955,172.527 85,174.5C 84.5017,171.183 84.335,167.85 84.5,164.5 Z"/></g>
<g><path style="opacity:1" fill="#5d5a7f" d="M 116.5,167.5 C 117.552,167.351 118.552,167.517 119.5,168C 117.741,169.008 116.574,170.508 116,172.5C 115.616,170.803 115.782,169.137 116.5,167.5 Z"/></g>
<g><path style="opacity:1" fill="#1b1a36" d="M 91.5,168.5 C 92.9559,170.418 94.6225,171.085 96.5,170.5C 94.9547,171.452 93.288,171.785 91.5,171.5C 91.5,170.5 91.5,169.5 91.5,168.5 Z"/></g>
<g><path style="opacity:1" fill="#161b30" d="M 153.5,168.5 C 154.404,169.209 154.737,170.209 154.5,171.5C 152.801,171.66 151.134,171.494 149.5,171C 151.437,170.878 152.77,170.045 153.5,168.5 Z"/></g>
<g><path style="opacity:1" fill="#426ea9" d="M 179.5,173.5 C 178.082,169.081 178.082,167.081 179.5,167.5C 183.5,167.833 183.5,168.167 179.5,168.5C 179.5,170.167 179.5,171.833 179.5,173.5 Z"/></g>
<g><path style="opacity:1" fill="#452438" d="M 186.5,168.5 C 187.251,167.427 188.251,167.26 189.5,168C 190.673,172.679 190.673,173.846 189.5,171.5C 186.282,171.651 185.949,172.484 188.5,174C 187.552,174.483 186.552,174.649 185.5,174.5C 185.5,173.167 185.5,171.833 185.5,170.5C 186.675,170.719 187.675,170.386 188.5,169.5C 188.043,168.702 187.376,168.369 186.5,168.5 Z"/></g>
<g><path style="opacity:1" fill="#907d7c" d="M 191.5,168.5 C 193.084,169.382 194.751,170.215 196.5,171C 197.451,171.718 197.617,172.551 197,173.5C 194.771,173.949 193.104,173.949 192,173.5C 191.506,171.866 191.34,170.199 191.5,168.5 Z"/></g>
<g><path style="opacity:1" fill="#452438" d="M 200.5,168.5 C 201.251,167.427 202.251,167.26 203.5,168C 204.673,172.679 204.673,173.846 203.5,171.5C 200.282,171.651 199.949,172.484 202.5,174C 201.552,174.483 200.552,174.649 199.5,174.5C 199.5,173.167 199.5,171.833 199.5,170.5C 200.675,170.719 201.675,170.386 202.5,169.5C 202.043,168.702 201.376,168.369 200.5,168.5 Z"/></g>
<g><path style="opacity:1" fill="#655b8c" d="M 179.5,173.5 C 180.5,173.5 181.5,173.5 182.5,173.5C 183.003,168.5 183.336,168.833 183.5,174.5C 181.901,174.768 180.568,174.434 179.5,173.5 Z"/></g>
<g><path style="opacity:1" fill="#f7f7f7" d="M 69.5,246.5 C 166.834,246.333 264.167,246.5 361.5,247C 382.824,246.067 393.324,256.233 393,277.5C 393.667,328.833 393.667,380.167 393,431.5C 393.324,452.767 382.824,462.933 361.5,462C 264.167,462.667 166.833,462.667 69.5,462C 48.1526,462.985 37.6526,452.819 38,431.5C 37.0477,376.481 37.3811,321.481 39,266.5C 41.1667,256.333 47.3333,250.167 57.5,248C 61.6877,247.824 65.6877,247.324 69.5,246.5 Z"/></g>
<g><path style="opacity:1" fill="#fefefe" d="M 54.5,250.5 C 161.834,250.333 269.167,250.5 376.5,251C 382.667,253.167 386.833,257.333 389,263.5C 389.667,324.167 389.667,384.833 389,445.5C 386.833,451.667 382.667,455.833 376.5,458C 269.167,458.667 161.833,458.667 54.5,458C 48.3333,455.833 44.1667,451.667 42,445.5C 41.3333,384.833 41.3333,324.167 42,263.5C 44.3531,257.315 48.5198,252.982 54.5,250.5 Z"/></g>
<g><path style="opacity:1" fill="#251125" d="M 85.5,314.5 C 89.3824,313.021 93.2158,313.355 97,315.5C 97.5214,320.036 95.3548,322.036 90.5,321.5C 90.1412,323.766 90.8078,325.599 92.5,327C 90.1667,327.667 87.8333,327.667 85.5,327C 86.7435,325.13 87.4101,322.964 87.5,320.5C 87.4609,318.048 86.7943,316.048 85.5,314.5 Z"/></g>
<g><path style="opacity:1" fill="#170c13" d="M 206.5,321.5 C 206.5,322.833 206.5,324.167 206.5,325.5C 203.728,322.306 200.728,319.306 197.5,316.5C 197.672,315.508 197.338,314.842 196.5,314.5C 195.183,313.413 196.183,313.246 199.5,314C 201.502,316.86 203.835,319.36 206.5,321.5 Z"/></g>
<g><path style="opacity:1" fill="#2a2453" d="M 281.5,313.5 C 283.465,313.948 283.798,314.948 282.5,316.5C 281.614,315.675 281.281,314.675 281.5,313.5 Z"/></g>
<g><path style="opacity:1" fill="#e9dcc2" d="M 90.5,314.5 C 94.35,314.701 95.35,316.534 93.5,320C 92.552,320.483 91.552,320.649 90.5,320.5C 90.5,318.5 90.5,316.5 90.5,314.5 Z"/></g>
<g><path style="opacity:1" fill="#616a9a" d="M 206.5,325.5 C 206.5,324.167 206.5,322.833 206.5,321.5C 206.958,318.606 206.291,316.106 204.5,314C 205.833,313.333 207.167,313.333 208.5,314C 207.992,319.173 207.326,323.006 206.5,325.5 Z"/></g>
<g><path style="opacity:1" fill="#836378" d="M 196.5,314.5 C 197.338,314.842 197.672,315.508 197.5,316.5C 196.971,320.351 197.638,323.851 199.5,327C 198.167,327.667 196.833,327.667 195.5,327C 196.464,322.934 196.797,318.767 196.5,314.5 Z"/></g>
<g><path style="opacity:1" fill="#020206" d="M 130.5,318.5 C 131.849,317.203 133.182,317.37 134.5,319C 133.167,321.667 133.167,324.333 134.5,327C 133.167,327.667 131.833,327.667 130.5,327C 131.817,324.063 131.817,321.23 130.5,318.5 Z"/></g>
<g><path style="opacity:1" fill="#2e0a24" d="M 158.5,317.5 C 159.5,317.5 160.5,317.5 161.5,317.5C 161.216,320.777 161.549,323.943 162.5,327C 161.207,327.49 159.873,327.657 158.5,327.5C 158.5,324.167 158.5,320.833 158.5,317.5 Z"/></g>
<g><path style="opacity:1" fill="#360d24" d="M 220.5,318.5 C 221.568,317.566 222.901,317.232 224.5,317.5C 224.216,320.777 224.549,323.943 225.5,327C 223.833,327.667 222.167,327.667 220.5,327C 221.817,324.063 221.817,321.23 220.5,318.5 Z"/></g>
<g><path style="opacity:1" fill="#33151f" d="M 280.5,317.5 C 281.5,317.5 282.5,317.5 283.5,317.5C 283.216,320.777 283.549,323.943 284.5,327C 282.833,327.667 281.167,327.667 279.5,327C 280.451,323.943 280.784,320.777 280.5,317.5 Z"/></g>
<g><path style="opacity:1" fill="#150f1d" d="M 285.5,318.5 C 286.568,317.566 287.901,317.232 289.5,317.5C 289.462,320.181 290.129,322.681 291.5,325C 291.37,326.059 290.87,326.892 290,327.5C 289.337,323.965 287.837,320.965 285.5,318.5 Z"/></g>
<g><path style="opacity:1" fill="#211529" d="M 292.5,318.5 C 294.966,317.366 297.633,317.199 300.5,318C 299.633,320.316 300.299,322.316 302.5,324C 301.809,325.067 301.309,326.234 301,327.5C 299.725,325.283 298.725,322.949 298,320.5C 297.311,319.643 296.478,318.977 295.5,318.5C 294.473,319.791 293.473,319.791 292.5,318.5 Z"/></g>
<g><path style="opacity:1" fill="#3c0d25" d="M 302.5,318.5 C 303.251,317.427 304.251,317.26 305.5,318C 304.648,319.728 303.648,319.895 302.5,318.5 Z"/></g>
<g><path style="opacity:1" fill="#10090b" d="M 325.5,318.5 C 326.209,317.596 327.209,317.263 328.5,317.5C 327.989,321.03 328.656,324.196 330.5,327C 329.216,327.684 328.049,327.517 327,326.5C 326.817,323.635 326.317,320.969 325.5,318.5 Z"/></g>
<g><path style="opacity:1" fill="#2a1726" d="M 330.5,318.5 C 331.568,317.566 332.901,317.232 334.5,317.5C 334.5,320.833 334.5,324.167 334.5,327.5C 333.5,327.5 332.5,327.5 331.5,327.5C 331.81,324.287 331.477,321.287 330.5,318.5 Z"/></g>
<g><path style="opacity:1" fill="#05000d" d="M 337.5,318.5 C 338.209,317.596 339.209,317.263 340.5,317.5C 340.216,320.777 340.549,323.943 341.5,327C 340.167,327.667 338.833,327.667 337.5,327C 338.817,324.063 338.817,321.23 337.5,318.5 Z"/></g>
<g><path style="opacity:1" fill="#341127" d="M 135.5,318.5 C 136.542,317.209 137.708,317.209 139,318.5C 139.218,321.426 139.718,324.26 140.5,327C 138.833,327.667 137.167,327.667 135.5,327C 136.817,324.063 136.817,321.23 135.5,318.5 Z"/></g>
<g><path style="opacity:1" fill="#0c050d" d="M 140.5,318.5 C 141.542,317.209 142.708,317.209 144,318.5C 144.218,321.426 144.718,324.26 145.5,327C 141.383,328.109 140.383,326.609 142.5,322.5C 142.415,320.667 141.748,319.334 140.5,318.5 Z"/></g>
<g><path style="opacity:1" fill="#0f0715" d="M 162.5,318.5 C 163.542,317.209 164.708,317.209 166,318.5C 166.218,321.426 166.718,324.26 167.5,327C 163.383,328.109 162.383,326.609 164.5,322.5C 164.415,320.667 163.748,319.334 162.5,318.5 Z"/></g>
<g><path style="opacity:1" fill="#232b3e" d="M 215.5,326.5 C 215.813,323.753 215.48,321.086 214.5,318.5C 213.614,319.325 213.281,320.325 213.5,321.5C 211.348,320.923 211.015,319.756 212.5,318C 214.235,317.349 215.902,317.515 217.5,318.5C 218.833,321.5 218.833,324.5 217.5,327.5C 216.817,327.137 216.15,326.804 215.5,326.5 Z"/></g>
<g><path style="opacity:1" fill="#0c090e" d="M 225.5,318.5 C 227.089,317.379 228.756,317.546 230.5,319C 229.167,321.667 229.167,324.333 230.5,327C 226.383,328.109 225.383,326.609 227.5,322.5C 227.415,320.667 226.748,319.334 225.5,318.5 Z"/></g>
<g><path style="opacity:1" fill="#361329" d="M 231.5,318.5 C 232.542,317.209 233.708,317.209 235,318.5C 235.218,321.426 235.718,324.26 236.5,327C 234.833,327.667 233.167,327.667 231.5,327C 232.817,324.063 232.817,321.23 231.5,318.5 Z"/></g>
<g><path style="opacity:1" fill="#392833" d="M 248.5,317.5 C 252.31,318.754 252.31,319.754 248.5,320.5C 248.5,319.5 248.5,318.5 248.5,317.5 Z"/></g>
<g><path style="opacity:1" fill="#3a1f21" d="M 342.5,317.5 C 344.225,317.843 344.725,318.843 344,320.5C 342.961,319.756 342.461,318.756 342.5,317.5 Z"/></g>
<g><path style="opacity:1" fill="#180500" d="M 101.5,318.5 C 101.5,321.167 101.5,323.833 101.5,326.5C 100.007,325.688 99.3402,324.355 99.5,322.5C 99.3402,320.645 100.007,319.312 101.5,318.5 Z"/></g>
<g><path style="opacity:1" fill="#3f1f32" d="M 104.5,318.5 C 106.722,318.559 107.722,319.725 107.5,322C 107.586,324.352 106.586,325.852 104.5,326.5C 104.5,323.833 104.5,321.167 104.5,318.5 Z"/></g>
<g><path style="opacity:1" fill="#1d1a2a" d="M 126.5,318.5 C 128.104,319.287 128.771,320.62 128.5,322.5C 126.833,322.5 125.167,322.5 123.5,322.5C 123.137,324.911 124.137,326.411 126.5,327C 123.173,327.513 121.507,326.013 121.5,322.5C 121.638,318.656 123.305,317.323 126.5,318.5 Z"/></g>
<g><path style="opacity:1" fill="#f0e1cc" d="M 126.5,318.5 C 126.5,319.5 126.5,320.5 126.5,321.5C 123.038,321.193 123.038,320.193 126.5,318.5 Z"/></g>
<g><path style="opacity:1" fill="#371605" d="M 149.5,318.5 C 149.5,321.167 149.5,323.833 149.5,326.5C 146.941,323.757 146.941,321.09 149.5,318.5 Z"/></g>
<g><path style="opacity:1" fill="#090417" d="M 153.5,318.5 C 154.993,319.312 155.66,320.645 155.5,322.5C 155.66,324.355 154.993,325.688 153.5,326.5C 153.5,323.833 153.5,321.167 153.5,318.5 Z"/></g>
<g><path style="opacity:1" fill="#28202e" d="M 243.5,318.5 C 245.104,319.287 245.771,320.62 245.5,322.5C 244.167,322.5 242.833,322.5 241.5,322.5C 241.227,324.451 241.893,325.951 243.5,327C 240.173,327.513 238.507,326.013 238.5,322.5C 238.638,318.656 240.305,317.323 243.5,318.5 Z"/></g>
<g><path style="opacity:1" fill="#fadaab" d="M 243.5,318.5 C 243.719,319.675 243.386,320.675 242.5,321.5C 241.202,319.948 241.535,318.948 243.5,318.5 Z"/></g>
<g><path style="opacity:1" fill="#28212d" d="M 308.5,317.5 C 310.765,317.441 311.098,318.274 309.5,320C 310.996,321.331 312.329,322.831 313.5,324.5C 313.192,325.308 312.692,325.975 312,326.5C 311.333,324.5 310,323.167 308,322.5C 307.36,320.735 307.527,319.068 308.5,317.5 Z"/></g>
<g><path style="opacity:1" fill="#221736" d="M 320.5,326.5 C 320.806,323.615 320.473,320.948 319.5,318.5C 318.141,319.007 317.141,320.007 316.5,321.5C 315.269,320.349 315.269,319.183 316.5,318C 321.23,316.396 323.23,318.063 322.5,323C 322.167,324.5 321.833,326 321.5,327.5C 320.893,327.376 320.56,327.043 320.5,326.5 Z"/></g>
<g><path style="opacity:1" fill="#5a7fa9" d="M 104.5,318.5 C 103.252,319.334 102.585,320.667 102.5,322.5C 102.585,324.333 103.252,325.666 104.5,326.5C 103.5,327.833 102.5,327.833 101.5,326.5C 101.5,323.833 101.5,321.167 101.5,318.5C 102.5,317.167 103.5,317.167 104.5,318.5 Z"/></g>
<g><path style="opacity:1" fill="#fcf7dc" d="M 104.5,318.5 C 104.5,321.167 104.5,323.833 104.5,326.5C 103.252,325.666 102.585,324.333 102.5,322.5C 102.585,320.667 103.252,319.334 104.5,318.5 Z"/></g>
<g><path style="opacity:1" fill="#2a366b" d="M 153.5,318.5 C 152.5,318.5 151.5,318.5 150.5,318.5C 150.5,321.167 150.5,323.833 150.5,326.5C 151.5,326.5 152.5,326.5 153.5,326.5C 152.167,327.833 150.833,327.833 149.5,326.5C 149.5,323.833 149.5,321.167 149.5,318.5C 150.833,317.167 152.167,317.167 153.5,318.5 Z"/></g>
<g><path style="opacity:1" fill="#e9e4d4" d="M 153.5,318.5 C 153.5,321.167 153.5,323.833 153.5,326.5C 152.5,326.5 151.5,326.5 150.5,326.5C 150.5,323.833 150.5,321.167 150.5,318.5C 151.5,318.5 152.5,318.5 153.5,318.5 Z"/></g>
<g><path style="opacity:1" fill="#341e28" d="M 109.5,313.5 C 110.5,313.5 111.5,313.5 112.5,313.5C 112.183,316.572 112.516,319.572 113.5,322.5C 115.98,321.585 116.647,320.085 115.5,318C 116.5,317.333 117.5,317.333 118.5,318C 115.566,321.42 115.9,324.42 119.5,327C 118.207,327.49 116.873,327.657 115.5,327.5C 115.778,325.654 115.111,324.32 113.5,323.5C 112.269,324.651 112.269,325.817 113.5,327C 112.207,327.49 110.873,327.657 109.5,327.5C 109.5,322.833 109.5,318.167 109.5,313.5 Z"/></g>
<g><path style="opacity:1" fill="#af9482" d="M 215.5,326.5 C 214.833,325.5 214.167,324.5 213.5,323.5C 213.167,323.5 212.833,323.5 212.5,323.5C 212.833,322.833 213.167,322.167 213.5,321.5C 213.281,320.325 213.614,319.325 214.5,318.5C 215.48,321.086 215.813,323.753 215.5,326.5 Z"/></g>
<g><path style="opacity:1" fill="#8e470b" d="M 319.5,318.5 C 320.473,320.948 320.806,323.615 320.5,326.5C 319.833,325.167 319.167,323.833 318.5,322.5C 319.234,321.292 319.567,319.959 319.5,318.5 Z"/></g>
<g><path style="opacity:1" fill="#2d1918" d="M 318.5,322.5 C 317.989,324.195 317.322,325.861 316.5,327.5C 314.91,324.83 315.577,323.163 318.5,322.5 Z"/></g>
<g><path style="opacity:1" fill="#2d2859" d="M 212.5,323.5 C 212.833,323.5 213.167,323.5 213.5,323.5C 213.762,324.978 213.429,326.311 212.5,327.5C 209.86,326.127 209.86,324.794 212.5,323.5 Z"/></g>
<g><path style="opacity:1" fill="#392833" d="M 248.5,324.5 C 252.31,325.754 252.31,326.754 248.5,327.5C 248.5,326.5 248.5,325.5 248.5,324.5 Z"/></g>
<g><path style="opacity:1" fill="#1f1016" d="M 296.5,328.5 C 297.267,329.172 297.934,330.005 298.5,331C 296.939,331.188 296.272,330.355 296.5,328.5 Z"/></g>
<g><path style="opacity:1" fill="#777777" d="M 66.5,399.5 C 113.835,399.333 161.168,399.5 208.5,400C 209.643,406.418 209.81,412.918 209,419.5C 161.571,420.664 114.071,420.83 66.5,420C 65.1842,413.167 65.1842,406.334 66.5,399.5 Z"/></g>
<g><path style="opacity:1" fill="#e0dbd9" d="M 67.5,400.5 C 114.168,400.333 160.835,400.5 207.5,401C 208.641,406.75 208.807,412.584 208,418.5C 161.237,419.664 114.404,419.83 67.5,419C 66.1862,412.834 66.1862,406.667 67.5,400.5 Z"/></g>
<g><path style="opacity:1" fill="#2c3058" d="M 183.5,410.5 C 186.797,410.329 187.131,410.995 184.5,412.5C 187.131,414.005 186.797,414.671 183.5,414.5C 183.5,413.167 183.5,411.833 183.5,410.5 Z"/></g>
<g><path style="opacity:1" fill="#61402d" d="M 177.5,410.5 C 178.5,410.5 179.5,410.5 180.5,410.5C 180.5,411.833 180.5,413.167 180.5,414.5C 177.203,414.671 176.869,414.005 179.5,412.5C 178.757,411.818 178.091,411.151 177.5,410.5 Z"/></g>
<g><path style="opacity:1" fill="#161b30" d="M 153.5,408.5 C 154.404,409.209 154.737,410.209 154.5,411.5C 152.801,411.66 151.134,411.494 149.5,411C 151.437,410.878 152.77,410.045 153.5,408.5 Z"/></g>
<g><path style="opacity:1" fill="#1b1a36" d="M 91.5,408.5 C 92.9559,410.418 94.6225,411.085 96.5,410.5C 94.9547,411.452 93.288,411.785 91.5,411.5C 91.5,410.5 91.5,409.5 91.5,408.5 Z"/></g>
<g><path style="opacity:1" fill="#2a2246" d="M 177.5,410.5 C 176.596,409.791 176.263,408.791 176.5,407.5C 177.552,407.351 178.552,407.517 179.5,408C 178.244,408.417 177.577,409.25 177.5,410.5 Z"/></g>
<g><path style="opacity:1" fill="#5d5a7f" d="M 116.5,407.5 C 117.552,407.351 118.552,407.517 119.5,408C 117.741,409.008 116.574,410.508 116,412.5C 115.616,410.803 115.782,409.137 116.5,407.5 Z"/></g>
<g><path style="opacity:1" fill="#4b7db7" d="M 84.5,404.5 C 85.404,405.209 85.7373,406.209 85.5,407.5C 89.5,407.833 89.5,408.167 85.5,408.5C 85.6621,410.527 85.4955,412.527 85,414.5C 84.5017,411.183 84.335,407.85 84.5,404.5 Z"/></g>
<g><path style="opacity:1" fill="#175885" d="M 137.5,408.5 C 137.56,407.957 137.893,407.624 138.5,407.5C 139.221,409.686 139.887,411.853 140.5,414C 140.167,414.167 139.833,414.333 139.5,414.5C 138.831,412.369 138.165,410.369 137.5,408.5 Z"/></g>
<g><path style="opacity:1" fill="#410935" d="M 130.5,405.5 C 131.267,406.172 131.934,407.005 132.5,408C 131.68,410.333 131.347,412.5 131.5,414.5C 130.144,411.429 129.811,408.429 130.5,405.5 Z"/></g>
<g><path style="opacity:1" fill="#3d599a" d="M 75.5,405.5 C 76.0431,405.56 76.3764,405.893 76.5,406.5C 75.8108,408.444 75.3108,410.444 75,412.5C 74.2967,410.071 74.4634,407.738 75.5,405.5 Z"/></g>
<g><path style="opacity:1" fill="#335387" d="M 123.5,407.5 C 124.008,409.842 125.008,412.009 126.5,414C 125.552,414.483 124.552,414.649 123.5,414.5C 123.5,412.167 123.5,409.833 123.5,407.5 Z"/></g>
<g><path style="opacity:1" fill="#23649b" d="M 105.5,404.5 C 107.324,407.773 107.491,411.106 106,414.5C 105.502,411.183 105.335,407.85 105.5,404.5 Z"/></g>
<g><path style="opacity:1" fill="#f7f7f7" d="M 69.5,486.5 C 166.834,486.333 264.167,486.5 361.5,487C 382.824,486.067 393.324,496.233 393,517.5C 393.667,568.833 393.667,620.167 393,671.5C 393.324,692.767 382.824,702.933 361.5,702C 264.167,702.667 166.833,702.667 69.5,702C 48.1526,702.985 37.6526,692.819 38,671.5C 37.0477,616.481 37.3811,561.481 39,506.5C 41.1667,496.333 47.3333,490.167 57.5,488C 61.6877,487.824 65.6877,487.324 69.5,486.5 Z"/></g>
<g><path style="opacity:1" fill="#fefefe" d="M 54.5,490.5 C 161.834,490.333 269.167,490.5 376.5,491C 382.667,493.167 386.833,497.333 389,503.5C 389.667,564.167 389.667,624.833 389,685.5C 386.833,691.667 382.667,695.833 376.5,698C 269.167,698.667 161.833,698.667 54.5,698C 48.3333,695.833 44.1667,691.667 42,685.5C 41.3333,624.833 41.3333,564.167 42,503.5C 44.3531,497.315 48.5198,492.982 54.5,490.5 Z"/></g>
<g><path style="opacity:1" fill="#251125" d="M 77.5,554.5 C 81.3824,553.021 85.2158,553.355 89,555.5C 89.5214,560.036 87.3548,562.036 82.5,561.5C 82.1412,563.766 82.8078,565.599 84.5,567C 82.1667,567.667 79.8333,567.667 77.5,567C 78.7435,565.13 79.4101,562.964 79.5,560.5C 79.4609,558.048 78.7943,556.048 77.5,554.5 Z"/></g>
<g><path style="opacity:1" fill="#1c1019" d="M 186.5,554.5 C 188.817,553.058 190.984,553.392 193,555.5C 194.29,557.792 195.957,559.792 198,561.5C 198.667,563.167 198.667,564.833 198,566.5C 194.587,561.924 190.754,557.924 186.5,554.5 Z"/></g>
<g><path style="opacity:1" fill="#e9dcc2" d="M 82.5,554.5 C 86.35,554.701 87.35,556.534 85.5,560C 84.552,560.483 83.552,560.649 82.5,560.5C 82.5,558.5 82.5,556.5 82.5,554.5 Z"/></g>
<g><path style="opacity:1" fill="#020005" d="M 122.5,558.5 C 123.209,557.596 124.209,557.263 125.5,557.5C 125.216,560.777 125.549,563.943 126.5,567C 125.167,567.667 123.833,567.667 122.5,567C 123.817,564.063 123.817,561.23 122.5,558.5 Z"/></g>
<g><path style="opacity:1" fill="#1a1e28" d="M 149.5,558.5 C 150.568,557.566 151.901,557.232 153.5,557.5C 153.5,560.833 153.5,564.167 153.5,567.5C 152.127,567.657 150.793,567.49 149.5,567C 150.817,564.063 150.817,561.23 149.5,558.5 Z"/></g>
<g><path style="opacity:1" fill="#360d24" d="M 212.5,558.5 C 213.568,557.566 214.901,557.232 216.5,557.5C 216.216,560.777 216.549,563.943 217.5,567C 215.833,567.667 214.167,567.667 212.5,567C 213.817,564.063 213.817,561.23 212.5,558.5 Z"/></g>
<g><path style="opacity:1" fill="#150f1d" d="M 271.5,558.5 C 272.568,557.566 273.901,557.232 275.5,557.5C 275.462,560.181 276.129,562.681 277.5,565C 277.37,566.059 276.87,566.892 276,567.5C 275.337,563.965 273.837,560.965 271.5,558.5 Z"/></g>
<g><path style="opacity:1" fill="#2e0a24" d="M 292.5,557.5 C 293.5,557.5 294.5,557.5 295.5,557.5C 295.216,560.777 295.549,563.943 296.5,567C 295.207,567.49 293.873,567.657 292.5,567.5C 292.5,564.167 292.5,560.833 292.5,557.5 Z"/></g>
<g><path style="opacity:1" fill="#10090b" d="M 303.5,558.5 C 304.209,557.596 305.209,557.263 306.5,557.5C 305.989,561.03 306.656,564.196 308.5,567C 307.216,567.684 306.049,567.517 305,566.5C 304.817,563.635 304.317,560.969 303.5,558.5 Z"/></g>
<g><path style="opacity:1" fill="#2a1726" d="M 308.5,558.5 C 309.568,557.566 310.901,557.232 312.5,557.5C 312.5,560.833 312.5,564.167 312.5,567.5C 311.5,567.5 310.5,567.5 309.5,567.5C 309.81,564.287 309.477,561.287 308.5,558.5 Z"/></g>
<g><path style="opacity:1" fill="#10090b" d="M 333.5,558.5 C 334.209,557.596 335.209,557.263 336.5,557.5C 335.989,561.03 336.656,564.196 338.5,567C 337.216,567.684 336.049,567.517 335,566.5C 334.817,563.635 334.317,560.969 333.5,558.5 Z"/></g>
<g><path style="opacity:1" fill="#2a1726" d="M 338.5,558.5 C 339.568,557.566 340.901,557.232 342.5,557.5C 342.5,560.833 342.5,564.167 342.5,567.5C 341.5,567.5 340.5,567.5 339.5,567.5C 339.81,564.287 339.477,561.287 338.5,558.5 Z"/></g>
<g><path style="opacity:1" fill="#05000d" d="M 345.5,558.5 C 346.209,557.596 347.209,557.263 348.5,557.5C 348.216,560.777 348.549,563.943 349.5,567C 348.167,567.667 346.833,567.667 345.5,567C 346.817,564.063 346.817,561.23 345.5,558.5 Z"/></g>
<g><path style="opacity:1" fill="#291927" d="M 127.5,558.5 C 128.542,557.209 129.708,557.209 131,558.5C 131.498,561.482 131.665,564.482 131.5,567.5C 130.127,567.657 128.793,567.49 127.5,567C 128.817,564.063 128.817,561.23 127.5,558.5 Z"/></g>
<g><path style="opacity:1" fill="#0f0715" d="M 132.5,558.5 C 133.542,557.209 134.708,557.209 136,558.5C 136.218,561.426 136.718,564.26 137.5,567C 133.383,568.109 132.383,566.609 134.5,562.5C 134.415,560.667 133.748,559.334 132.5,558.5 Z"/></g>
<g><path style="opacity:1" fill="#361329" d="M 154.5,558.5 C 155.542,557.209 156.708,557.209 158,558.5C 158.218,561.426 158.718,564.26 159.5,567C 157.833,567.667 156.167,567.667 154.5,567C 155.817,564.063 155.817,561.23 154.5,558.5 Z"/></g>
<g><path style="opacity:1" fill="#232b3e" d="M 207.5,566.5 C 207.813,563.753 207.48,561.086 206.5,558.5C 205.614,559.325 205.281,560.325 205.5,561.5C 203.348,560.923 203.015,559.756 204.5,558C 206.235,557.349 207.902,557.515 209.5,558.5C 210.833,561.5 210.833,564.5 209.5,567.5C 208.817,567.137 208.15,566.804 207.5,566.5 Z"/></g>
<g><path style="opacity:1" fill="#0c090e" d="M 217.5,558.5 C 219.089,557.379 220.756,557.546 222.5,559C 221.167,561.667 221.167,564.333 222.5,567C 218.383,568.109 217.383,566.609 219.5,562.5C 219.415,560.667 218.748,559.334 217.5,558.5 Z"/></g>
<g><path style="opacity:1" fill="#361329" d="M 223.5,558.5 C 224.542,557.209 225.708,557.209 227,558.5C 227.218,561.426 227.718,564.26 228.5,567C 226.833,567.667 225.167,567.667 223.5,567C 224.817,564.063 224.817,561.23 223.5,558.5 Z"/></g>
<g><path style="opacity:1" fill="#24141b" d="M 240.5,557.5 C 242.465,557.948 242.798,558.948 241.5,560.5C 240.614,559.675 240.281,558.675 240.5,557.5 Z"/></g>
<g><path style="opacity:1" fill="#0f0715" d="M 296.5,558.5 C 297.542,557.209 298.708,557.209 300,558.5C 300.218,561.426 300.718,564.26 301.5,567C 297.383,568.109 296.383,566.609 298.5,562.5C 298.415,560.667 297.748,559.334 296.5,558.5 Z"/></g>
<g><path style="opacity:1" fill="#160d19" d="M 325.5,558.5 C 329.572,556.721 331.239,558.221 330.5,563C 330.167,564.5 329.833,566 329.5,567.5C 328.893,567.376 328.56,567.043 328.5,566.5C 328.806,563.615 328.473,560.948 327.5,558.5C 326.833,558.5 326.167,558.5 325.5,558.5 Z"/></g>
<g><path style="opacity:1" fill="#3a1f21" d="M 350.5,557.5 C 352.225,557.843 352.725,558.843 352,560.5C 350.961,559.756 350.461,558.756 350.5,557.5 Z"/></g>
<g><path style="opacity:1" fill="#442a2f" d="M 114.5,557.5 C 118.349,557.019 120.349,558.686 120.5,562.5C 118.833,562.5 117.167,562.5 115.5,562.5C 115.137,564.911 116.137,566.411 118.5,567C 113.008,567.486 111.175,564.986 113,559.5C 113.717,558.956 114.217,558.289 114.5,557.5 Z"/></g>
<g><path style="opacity:1" fill="#371605" d="M 141.5,558.5 C 141.5,561.167 141.5,563.833 141.5,566.5C 138.941,563.757 138.941,561.09 141.5,558.5 Z"/></g>
<g><path style="opacity:1" fill="#090417" d="M 145.5,558.5 C 146.993,559.312 147.66,560.645 147.5,562.5C 147.66,564.355 146.993,565.688 145.5,566.5C 145.5,563.833 145.5,561.167 145.5,558.5 Z"/></g>
<g><path style="opacity:1" fill="#1d1a2a" d="M 235.5,558.5 C 237.104,559.287 237.771,560.62 237.5,562.5C 235.833,562.5 234.167,562.5 232.5,562.5C 232.137,564.911 233.137,566.411 235.5,567C 232.173,567.513 230.507,566.013 230.5,562.5C 230.638,558.656 232.305,557.323 235.5,558.5 Z"/></g>
<g><path style="opacity:1" fill="#f0e1cc" d="M 235.5,558.5 C 235.5,559.5 235.5,560.5 235.5,561.5C 232.038,561.193 232.038,560.193 235.5,558.5 Z"/></g>
<g><path style="opacity:1" fill="#402426" d="M 284.5,557.5 C 288.5,556.833 290.167,558.5 289.5,562.5C 288.167,562.5 286.833,562.5 285.5,562.5C 285.137,564.911 286.137,566.411 288.5,567C 283.008,567.486 281.175,564.986 283,559.5C 283.717,558.956 284.217,558.289 284.5,557.5 Z"/></g>
<g><path style="opacity:1" fill="#28212d" d="M 316.5,557.5 C 318.765,557.441 319.098,558.274 317.5,560C 318.996,561.331 320.329,562.831 321.5,564.5C 321.192,565.308 320.692,565.975 320,566.5C 319.333,564.5 318,563.167 316,562.5C 315.36,560.735 315.527,559.068 316.5,557.5 Z"/></g>
<g><path style="opacity:1" fill="#37142a" d="M 325.5,558.5 C 325.719,559.675 325.386,560.675 324.5,561.5C 323.202,559.948 323.535,558.948 325.5,558.5 Z"/></g>
<g><path style="opacity:1" fill="#381d22" d="M 96.5,558.5 C 95.5,558.5 94.5,558.5 93.5,558.5C 93.5,561.167 93.5,563.833 93.5,566.5C 94.5,566.5 95.5,566.5 96.5,566.5C 92.917,567.713 90.917,566.213 90.5,562C 91.0483,557.91 93.0483,556.743 96.5,558.5 Z"/></g>
<g><path style="opacity:1" fill="#dbe8dd" d="M 96.5,558.5 C 96.5,561.167 96.5,563.833 96.5,566.5C 95.5,566.5 94.5,566.5 93.5,566.5C 93.5,563.833 93.5,561.167 93.5,558.5C 94.5,558.5 95.5,558.5 96.5,558.5 Z"/></g>
<g><path style="opacity:1" fill="#1d040c" d="M 96.5,558.5 C 97.9931,559.312 98.6598,560.645 98.5,562.5C 98.6598,564.355 97.9931,565.688 96.5,566.5C 96.5,563.833 96.5,561.167 96.5,558.5 Z"/></g>
<g><path style="opacity:1" fill="#e7f8f5" d="M 115.5,558.5 C 117.465,558.948 117.798,559.948 116.5,561.5C 115.614,560.675 115.281,559.675 115.5,558.5 Z"/></g>
<g><path style="opacity:1" fill="#2a366b" d="M 145.5,558.5 C 144.5,558.5 143.5,558.5 142.5,558.5C 142.5,561.167 142.5,563.833 142.5,566.5C 143.5,566.5 144.5,566.5 145.5,566.5C 144.167,567.833 142.833,567.833 141.5,566.5C 141.5,563.833 141.5,561.167 141.5,558.5C 142.833,557.167 144.167,557.167 145.5,558.5 Z"/></g>
<g><path style="opacity:1" fill="#e9e4d4" d="M 145.5,558.5 C 145.5,561.167 145.5,563.833 145.5,566.5C 144.5,566.5 143.5,566.5 142.5,566.5C 142.5,563.833 142.5,561.167 142.5,558.5C 143.5,558.5 144.5,558.5 145.5,558.5 Z"/></g>
<g><path style="opacity:1" fill="#e7f8f5" d="M 285.5,558.5 C 287.465,558.948 287.798,559.948 286.5,561.5C 285.614,560.675 285.281,559.675 285.5,558.5 Z"/></g>
<g><path style="opacity:1" fill="#341e28" d="M 101.5,553.5 C 102.5,553.5 103.5,553.5 104.5,553.5C 104.183,556.572 104.516,559.572 105.5,562.5C 107.98,561.585 108.647,560.085 107.5,558C 108.5,557.333 109.5,557.333 110.5,558C 107.566,561.42 107.9,564.42 111.5,567C 110.207,567.49 108.873,567.657 107.5,567.5C 107.778,565.654 107.111,564.32 105.5,563.5C 104.269,564.651 104.269,565.817 105.5,567C 104.207,567.49 102.873,567.657 101.5,567.5C 101.5,562.833 101.5,558.167 101.5,553.5 Z"/></g>
<g><path style="opacity:1" fill="#af9482" d="M 207.5,566.5 C 206.833,565.5 206.167,564.5 205.5,563.5C 205.167,563.5 204.833,563.5 204.5,563.5C 204.833,562.833 205.167,562.167 205.5,561.5C 205.281,560.325 205.614,559.325 206.5,558.5C 207.48,561.086 207.813,563.753 207.5,566.5 Z"/></g>
<g><path style="opacity:1" fill="#aa7115" d="M 327.5,558.5 C 328.473,560.948 328.806,563.615 328.5,566.5C 326.859,563.954 326.525,561.287 327.5,558.5 Z"/></g>
<g><path style="opacity:1" fill="#27170f" d="M 323.5,563.5 C 324.586,563.62 325.253,564.287 325.5,565.5C 325.167,566.167 324.833,566.833 324.5,567.5C 323.571,566.311 323.238,564.978 323.5,563.5 Z"/></g>
<g><path style="opacity:1" fill="#2d2859" d="M 204.5,563.5 C 204.833,563.5 205.167,563.5 205.5,563.5C 205.762,564.978 205.429,566.311 204.5,567.5C 201.86,566.127 201.86,564.794 204.5,563.5 Z"/></g>
<g><path style="opacity:1" fill="#24141b" d="M 240.5,564.5 C 242.465,564.948 242.798,565.948 241.5,567.5C 240.614,566.675 240.281,565.675 240.5,564.5 Z"/></g>
<g><path style="opacity:1" fill="#787878" d="M 66.5,639.5 C 117.834,639.333 169.168,639.5 220.5,640C 221.643,646.418 221.81,652.918 221,659.5C 169.571,660.664 118.071,660.83 66.5,660C 65.1842,653.167 65.1842,646.334 66.5,639.5 Z"/></g>
<g><path style="opacity:1" fill="#e2dedc" d="M 67.5,640.5 C 118.168,640.333 168.834,640.5 219.5,641C 220.641,646.75 220.807,652.584 220,658.5C 169.237,659.664 118.404,659.83 67.5,659C 66.1862,652.834 66.1862,646.667 67.5,640.5 Z"/></g>
<g><path style="opacity:1" fill="#23649b" d="M 105.5,644.5 C 107.324,647.773 107.491,651.106 106,654.5C 105.502,651.183 105.335,647.85 105.5,644.5 Z"/></g>
<g><path style="opacity:1" fill="#335387" d="M 123.5,647.5 C 124.008,649.842 125.008,652.009 126.5,654C 125.552,654.483 124.552,654.649 123.5,654.5C 123.5,652.167 123.5,649.833 123.5,647.5 Z"/></g>
<g><path style="opacity:1" fill="#335387" d="M 203.5,647.5 C 204.008,649.842 205.008,652.009 206.5,654C 205.552,654.483 204.552,654.649 203.5,654.5C 203.5,652.167 203.5,649.833 203.5,647.5 Z"/></g>
<g><path style="opacity:1" fill="#3d599a" d="M 75.5,645.5 C 76.0431,645.56 76.3764,645.893 76.5,646.5C 75.8108,648.444 75.3108,650.444 75,652.5C 74.2967,650.071 74.4634,647.738 75.5,645.5 Z"/></g>
<g><path style="opacity:1" fill="#410935" d="M 130.5,645.5 C 131.267,646.172 131.934,647.005 132.5,648C 131.68,650.333 131.347,652.5 131.5,654.5C 130.144,651.429 129.811,648.429 130.5,645.5 Z"/></g>
<g><path style="opacity:1" fill="#175885" d="M 137.5,648.5 C 137.56,647.957 137.893,647.624 138.5,647.5C 139.221,649.686 139.887,651.853 140.5,654C 140.167,654.167 139.833,654.333 139.5,654.5C 138.831,652.369 138.165,650.369 137.5,648.5 Z"/></g>
<g><path style="opacity:1" fill="#937e80" d="M 199.5,648.5 C 199.119,649.931 198.119,650.764 196.5,651C 196.728,651.399 197.062,651.565 197.5,651.5C 198.1,655.403 197.1,655.403 194.5,651.5C 193.808,652.025 193.308,652.692 193,653.5C 192.009,652.061 190.676,651.061 189,650.5C 188.333,649.833 188.333,649.167 189,648.5C 192.6,648.467 196.1,648.467 199.5,648.5 Z"/></g>
<g><path style="opacity:1" fill="#4b7db7" d="M 84.5,644.5 C 85.404,645.209 85.7373,646.209 85.5,647.5C 89.5,647.833 89.5,648.167 85.5,648.5C 85.6621,650.527 85.4955,652.527 85,654.5C 84.5017,651.183 84.335,647.85 84.5,644.5 Z"/></g>
<g><path style="opacity:1" fill="#5d5a7f" d="M 116.5,647.5 C 117.552,647.351 118.552,647.517 119.5,648C 117.741,649.008 116.574,650.508 116,652.5C 115.616,650.803 115.782,649.137 116.5,647.5 Z"/></g>
<g><path style="opacity:1" fill="#a67038" d="M 175.5,648.5 C 176.209,647.596 177.209,647.263 178.5,647.5C 178.663,649.857 178.497,652.19 178,654.5C 177.998,651.949 177.164,649.949 175.5,648.5 Z"/></g>
<g><path style="opacity:1" fill="#240d64" d="M 210.5,647.5 C 211.552,647.351 212.552,647.517 213.5,648C 211.901,649.786 211.067,651.953 211,654.5C 210.503,652.19 210.337,649.857 210.5,647.5 Z"/></g>
<g><path style="opacity:1" fill="#1b1a36" d="M 91.5,648.5 C 92.9559,650.418 94.6225,651.085 96.5,650.5C 94.9547,651.452 93.288,651.785 91.5,651.5C 91.5,650.5 91.5,649.5 91.5,648.5 Z"/></g>
<g><path style="opacity:1" fill="#161b30" d="M 153.5,648.5 C 154.404,649.209 154.737,650.209 154.5,651.5C 152.801,651.66 151.134,651.494 149.5,651C 151.437,650.878 152.77,650.045 153.5,648.5 Z"/></g>
<g><path style="opacity:1" fill="#370c35" d="M 199.5,648.5 C 200.622,650.288 200.789,652.288 200,654.5C 199.764,652.881 198.931,651.881 197.5,651.5C 197.062,651.565 196.728,651.399 196.5,651C 198.119,650.764 199.119,649.931 199.5,648.5 Z"/></g>
<g><path style="opacity:1" fill="#8b746f" d="M 175.5,648.5 C 175.799,650.604 175.466,652.604 174.5,654.5C 173.808,653.975 173.308,653.308 173,652.5C 167.934,655.894 165.934,654.56 167,648.5C 168.667,651.167 170.333,651.167 172,648.5C 172.914,652.185 173.581,651.852 174,647.5C 174.383,648.056 174.883,648.389 175.5,648.5 Z"/></g>
<g><path style="opacity:1" fill="#fefefe" d="M 389.5,888.5 C 339.167,888.5 288.833,888.5 238.5,888.5C 238.586,887.504 238.252,886.671 237.5,886C 180.5,885.333 123.5,885.333 66.5,886C 65.7476,886.671 65.4142,887.504 65.5,888.5C 57.5,888.5 49.5,888.5 41.5,888.5C 41.3333,840.166 41.5,791.832 42,743.5C 44.1667,737.333 48.3333,733.167 54.5,731C 161.833,730.333 269.167,730.333 376.5,731C 382.667,733.167 386.833,737.333 389,743.5C 389.5,791.832 389.667,840.166 389.5,888.5 Z"/></g>
<g><path style="opacity:1" fill="#251125" d="M 65.5,788.5 C 69.3824,787.021 73.2158,787.355 77,789.5C 77.5214,794.036 75.3548,796.036 70.5,795.5C 70.1412,797.766 70.8078,799.599 72.5,801C 70.1667,801.667 67.8333,801.667 65.5,801C 66.7435,799.13 67.4101,796.964 67.5,794.5C 67.4609,792.048 66.7943,790.048 65.5,788.5 Z"/></g>
<g><path style="opacity:1" fill="#170c13" d="M 186.5,795.5 C 186.5,796.833 186.5,798.167 186.5,799.5C 183.728,796.306 180.728,793.306 177.5,790.5C 177.672,789.508 177.338,788.842 176.5,788.5C 175.183,787.413 176.183,787.246 179.5,788C 181.502,790.86 183.835,793.36 186.5,795.5 Z"/></g>
<g><path style="opacity:1" fill="#e9dcc2" d="M 70.5,788.5 C 74.35,788.701 75.35,790.534 73.5,794C 72.552,794.483 71.552,794.649 70.5,794.5C 70.5,792.5 70.5,790.5 70.5,788.5 Z"/></g>
<g><path style="opacity:1" fill="#616a9a" d="M 186.5,799.5 C 186.5,798.167 186.5,796.833 186.5,795.5C 186.958,792.606 186.291,790.106 184.5,788C 185.833,787.333 187.167,787.333 188.5,788C 187.992,793.173 187.326,797.006 186.5,799.5 Z"/></g>
<g><path style="opacity:1" fill="#836378" d="M 176.5,788.5 C 177.338,788.842 177.672,789.508 177.5,790.5C 176.971,794.351 177.638,797.851 179.5,801C 178.167,801.667 176.833,801.667 175.5,801C 176.464,796.934 176.797,792.767 176.5,788.5 Z"/></g>
<g><path style="opacity:1" fill="#020206" d="M 110.5,792.5 C 111.849,791.203 113.182,791.37 114.5,793C 113.167,795.667 113.167,798.333 114.5,801C 113.167,801.667 111.833,801.667 110.5,801C 111.817,798.063 111.817,795.23 110.5,792.5 Z"/></g>
<g><path style="opacity:1" fill="#2e0a24" d="M 138.5,791.5 C 139.5,791.5 140.5,791.5 141.5,791.5C 141.216,794.777 141.549,797.943 142.5,801C 141.207,801.49 139.873,801.657 138.5,801.5C 138.5,798.167 138.5,794.833 138.5,791.5 Z"/></g>
<g><path style="opacity:1" fill="#360d24" d="M 200.5,792.5 C 201.568,791.566 202.901,791.232 204.5,791.5C 204.216,794.777 204.549,797.943 205.5,801C 203.833,801.667 202.167,801.667 200.5,801C 201.817,798.063 201.817,795.23 200.5,792.5 Z"/></g>
<g><path style="opacity:1" fill="#341127" d="M 115.5,792.5 C 116.542,791.209 117.708,791.209 119,792.5C 119.218,795.426 119.718,798.26 120.5,801C 118.833,801.667 117.167,801.667 115.5,801C 116.817,798.063 116.817,795.23 115.5,792.5 Z"/></g>
<g><path style="opacity:1" fill="#0c050d" d="M 120.5,792.5 C 121.542,791.209 122.708,791.209 124,792.5C 124.218,795.426 124.718,798.26 125.5,801C 121.383,802.109 120.383,800.609 122.5,796.5C 122.415,794.667 121.748,793.334 120.5,792.5 Z"/></g>
<g><path style="opacity:1" fill="#0f0715" d="M 142.5,792.5 C 143.542,791.209 144.708,791.209 146,792.5C 146.218,795.426 146.718,798.26 147.5,801C 143.383,802.109 142.383,800.609 144.5,796.5C 144.415,794.667 143.748,793.334 142.5,792.5 Z"/></g>
<g><path style="opacity:1" fill="#232b3e" d="M 195.5,800.5 C 195.813,797.753 195.48,795.086 194.5,792.5C 193.614,793.325 193.281,794.325 193.5,795.5C 191.348,794.923 191.015,793.756 192.5,792C 194.235,791.349 195.902,791.515 197.5,792.5C 198.833,795.5 198.833,798.5 197.5,801.5C 196.817,801.137 196.15,800.804 195.5,800.5 Z"/></g>
<g><path style="opacity:1" fill="#0c090e" d="M 205.5,792.5 C 207.089,791.379 208.756,791.546 210.5,793C 209.167,795.667 209.167,798.333 210.5,801C 206.383,802.109 205.383,800.609 207.5,796.5C 207.415,794.667 206.748,793.334 205.5,792.5 Z"/></g>
<g><path style="opacity:1" fill="#361329" d="M 211.5,792.5 C 212.542,791.209 213.708,791.209 215,792.5C 215.218,795.426 215.718,798.26 216.5,801C 214.833,801.667 213.167,801.667 211.5,801C 212.817,798.063 212.817,795.23 211.5,792.5 Z"/></g>
<g><path style="opacity:1" fill="#392833" d="M 228.5,791.5 C 232.31,792.754 232.31,793.754 228.5,794.5C 228.5,793.5 228.5,792.5 228.5,791.5 Z"/></g>
<g><path style="opacity:1" fill="#180500" d="M 81.5,792.5 C 81.5,795.167 81.5,797.833 81.5,800.5C 80.0069,799.688 79.3402,798.355 79.5,796.5C 79.3402,794.645 80.0069,793.312 81.5,792.5 Z"/></g>
<g><path style="opacity:1" fill="#3f1f32" d="M 84.5,792.5 C 86.7224,792.559 87.7224,793.725 87.5,796C 87.5864,798.352 86.5864,799.852 84.5,800.5C 84.5,797.833 84.5,795.167 84.5,792.5 Z"/></g>
<g><path style="opacity:1" fill="#1d1a2a" d="M 106.5,792.5 C 108.104,793.287 108.771,794.62 108.5,796.5C 106.833,796.5 105.167,796.5 103.5,796.5C 103.137,798.911 104.137,800.411 106.5,801C 103.173,801.513 101.507,800.013 101.5,796.5C 101.638,792.656 103.305,791.323 106.5,792.5 Z"/></g>
<g><path style="opacity:1" fill="#f0e1cc" d="M 106.5,792.5 C 106.5,793.5 106.5,794.5 106.5,795.5C 103.038,795.193 103.038,794.193 106.5,792.5 Z"/></g>
<g><path style="opacity:1" fill="#371605" d="M 129.5,792.5 C 129.5,795.167 129.5,797.833 129.5,800.5C 126.941,797.757 126.941,795.09 129.5,792.5 Z"/></g>
<g><path style="opacity:1" fill="#090417" d="M 133.5,792.5 C 134.993,793.312 135.66,794.645 135.5,796.5C 135.66,798.355 134.993,799.688 133.5,800.5C 133.5,797.833 133.5,795.167 133.5,792.5 Z"/></g>
<g><path style="opacity:1" fill="#28202e" d="M 223.5,792.5 C 225.104,793.287 225.771,794.62 225.5,796.5C 224.167,796.5 222.833,796.5 221.5,796.5C 221.227,798.451 221.893,799.951 223.5,801C 220.173,801.513 218.507,800.013 218.5,796.5C 218.638,792.656 220.305,791.323 223.5,792.5 Z"/></g>
<g><path style="opacity:1" fill="#fadaab" d="M 223.5,792.5 C 223.719,793.675 223.386,794.675 222.5,795.5C 221.202,793.948 221.535,792.948 223.5,792.5 Z"/></g>
<g><path style="opacity:1" fill="#5a7fa9" d="M 84.5,792.5 C 83.2521,793.334 82.5854,794.667 82.5,796.5C 82.5854,798.333 83.2521,799.666 84.5,800.5C 83.5,801.833 82.5,801.833 81.5,800.5C 81.5,797.833 81.5,795.167 81.5,792.5C 82.5,791.167 83.5,791.167 84.5,792.5 Z"/></g>
<g><path style="opacity:1" fill="#fcf7dc" d="M 84.5,792.5 C 84.5,795.167 84.5,797.833 84.5,800.5C 83.2521,799.666 82.5854,798.333 82.5,796.5C 82.5854,794.667 83.2521,793.334 84.5,792.5 Z"/></g>
<g><path style="opacity:1" fill="#2a366b" d="M 133.5,792.5 C 132.5,792.5 131.5,792.5 130.5,792.5C 130.5,795.167 130.5,797.833 130.5,800.5C 131.5,800.5 132.5,800.5 133.5,800.5C 132.167,801.833 130.833,801.833 129.5,800.5C 129.5,797.833 129.5,795.167 129.5,792.5C 130.833,791.167 132.167,791.167 133.5,792.5 Z"/></g>
<g><path style="opacity:1" fill="#e9e4d4" d="M 133.5,792.5 C 133.5,795.167 133.5,797.833 133.5,800.5C 132.5,800.5 131.5,800.5 130.5,800.5C 130.5,797.833 130.5,795.167 130.5,792.5C 131.5,792.5 132.5,792.5 133.5,792.5 Z"/></g>
<g><path style="opacity:1" fill="#341e28" d="M 89.5,787.5 C 90.5,787.5 91.5,787.5 92.5,787.5C 92.1826,790.572 92.5159,793.572 93.5,796.5C 95.9803,795.585 96.6469,794.085 95.5,792C 96.5,791.333 97.5,791.333 98.5,792C 95.5663,795.42 95.8997,798.42 99.5,801C 98.2068,801.49 96.8734,801.657 95.5,801.5C 95.7778,799.654 95.1112,798.32 93.5,797.5C 92.269,798.651 92.269,799.817 93.5,801C 92.2068,801.49 90.8734,801.657 89.5,801.5C 89.5,796.833 89.5,792.167 89.5,787.5 Z"/></g>
<g><path style="opacity:1" fill="#af9482" d="M 195.5,800.5 C 194.833,799.5 194.167,798.5 193.5,797.5C 193.167,797.5 192.833,797.5 192.5,797.5C 192.833,796.833 193.167,796.167 193.5,795.5C 193.281,794.325 193.614,793.325 194.5,792.5C 195.48,795.086 195.813,797.753 195.5,800.5 Z"/></g>
<g><path style="opacity:1" fill="#2d2859" d="M 192.5,797.5 C 192.833,797.5 193.167,797.5 193.5,797.5C 193.762,798.978 193.429,800.311 192.5,801.5C 189.86,800.127 189.86,798.794 192.5,797.5 Z"/></g>
<g><path style="opacity:1" fill="#392833" d="M 228.5,798.5 C 232.31,799.754 232.31,800.754 228.5,801.5C 228.5,800.5 228.5,799.5 228.5,798.5 Z"/></g>
<g><path style="opacity:1" fill="#010005" d="M 75.5,812.5 C 76.209,811.596 77.209,811.263 78.5,811.5C 78.7146,815.938 79.048,820.438 79.5,825C 78.1667,825.667 76.8333,825.667 75.5,825C 76.822,820.733 76.822,816.566 75.5,812.5 Z"/></g>
<g><path style="opacity:1" fill="#0e0502" d="M 150.5,812.5 C 151.568,811.566 152.901,811.232 154.5,811.5C 154.203,815.767 154.536,819.934 155.5,824C 154.167,824.667 152.833,824.667 151.5,824C 152.131,822.094 152.464,820.094 152.5,818C 152.453,815.705 151.787,813.871 150.5,812.5 Z"/></g>
<g><path style="opacity:1" fill="#2b1729" d="M 97.5,816.5 C 98.5676,815.566 99.901,815.232 101.5,815.5C 101.216,818.777 101.549,821.943 102.5,825C 100.833,825.667 99.1667,825.667 97.5,825C 98.8166,822.063 98.8166,819.23 97.5,816.5 Z"/></g>
<g><path style="opacity:1" fill="#360d24" d="M 106.5,816.5 C 107.568,815.566 108.901,815.232 110.5,815.5C 110.216,818.777 110.549,821.943 111.5,825C 109.833,825.667 108.167,825.667 106.5,825C 107.817,822.063 107.817,819.23 106.5,816.5 Z"/></g>
<g><path style="opacity:1" fill="#000000" d="M 134.5,816.5 C 135.209,815.596 136.209,815.263 137.5,815.5C 137.216,818.777 137.549,821.943 138.5,825C 137.167,825.667 135.833,825.667 134.5,825C 135.817,822.063 135.817,819.23 134.5,816.5 Z"/></g>
<g><path style="opacity:1" fill="#371126" d="M 166.5,816.5 C 167.568,815.566 168.901,815.232 170.5,815.5C 170.216,818.777 170.549,821.943 171.5,825C 169.833,825.667 168.167,825.667 166.5,825C 167.817,822.063 167.817,819.23 166.5,816.5 Z"/></g>
<g><path style="opacity:1" fill="#2a1a27" d="M 80.5,816.5 C 81.3132,815.347 82.3132,815.347 83.5,816.5C 84.4841,819.428 84.8174,822.428 84.5,825.5C 83.1266,825.657 81.7932,825.49 80.5,825C 81.8166,822.063 81.8166,819.23 80.5,816.5 Z"/></g>
<g><path style="opacity:1" fill="#472d6b" d="M 103.5,815.5 C 105.465,815.948 105.798,816.948 104.5,818.5C 103.614,817.675 103.281,816.675 103.5,815.5 Z"/></g>
<g><path style="opacity:1" fill="#0c090e" d="M 111.5,816.5 C 113.089,815.379 114.756,815.546 116.5,817C 115.167,819.667 115.167,822.333 116.5,825C 112.383,826.109 111.383,824.609 113.5,820.5C 113.415,818.667 112.748,817.334 111.5,816.5 Z"/></g>
<g><path style="opacity:1" fill="#361329" d="M 117.5,816.5 C 118.542,815.209 119.708,815.209 121,816.5C 121.218,819.426 121.718,822.26 122.5,825C 120.833,825.667 119.167,825.667 117.5,825C 118.817,822.063 118.817,819.23 117.5,816.5 Z"/></g>
<g><path style="opacity:1" fill="#2c1d2a" d="M 138.5,816.5 C 139.884,815.199 141.384,815.199 143,816.5C 143.498,819.482 143.665,822.482 143.5,825.5C 139.422,826.082 138.422,824.415 140.5,820.5C 140.415,818.667 139.748,817.334 138.5,816.5 Z"/></g>
<g><path style="opacity:1" fill="#1c1114" d="M 149.5,817.5 C 148.532,819.607 148.198,821.941 148.5,824.5C 146.974,823.508 146.307,822.008 146.5,820C 146.519,816.499 148.186,815.166 151.5,816C 150.584,816.278 149.918,816.778 149.5,817.5 Z"/></g>
<g><path style="opacity:1" fill="#462152" d="M 172.5,815.5 C 174.465,815.948 174.798,816.948 173.5,818.5C 172.614,817.675 172.281,816.675 172.5,815.5 Z"/></g>
<g><path style="opacity:1" fill="#291d26" d="M 68.5,815.5 C 70.6648,815.116 72.3315,815.783 73.5,817.5C 73.1667,817.833 72.8333,818.167 72.5,818.5C 70.5839,815.895 69.5839,816.395 69.5,820C 69.3536,822.034 70.0203,823.701 71.5,825C 68.1734,825.513 66.5067,824.013 66.5,820.5C 66.4365,818.486 67.1032,816.819 68.5,815.5 Z"/></g>
<g><path style="opacity:1" fill="#221736" d="M 92.5,824.5 C 92.8064,821.615 92.4731,818.948 91.5,816.5C 90.1411,817.007 89.1411,818.007 88.5,819.5C 87.269,818.349 87.269,817.183 88.5,816C 93.2296,814.396 95.2296,816.063 94.5,821C 94.1667,822.5 93.8333,824 93.5,825.5C 92.8933,825.376 92.56,825.043 92.5,824.5 Z"/></g>
<g><path style="opacity:1" fill="#221736" d="M 129.5,824.5 C 129.806,821.615 129.473,818.948 128.5,816.5C 127.141,817.007 126.141,818.007 125.5,819.5C 124.269,818.349 124.269,817.183 125.5,816C 130.23,814.396 132.23,816.063 131.5,821C 131.167,822.5 130.833,824 130.5,825.5C 129.893,825.376 129.56,825.043 129.5,824.5 Z"/></g>
<g><path style="opacity:1" fill="#361c24" d="M 162.5,816.5 C 164.104,817.287 164.771,818.62 164.5,820.5C 163.167,820.5 161.833,820.5 160.5,820.5C 160.297,822.39 160.963,823.89 162.5,825C 159.173,825.513 157.507,824.013 157.5,820.5C 157.638,816.656 159.305,815.323 162.5,816.5 Z"/></g>
<g><path style="opacity:1" fill="#5e8fc4" d="M 149.5,817.5 C 149.232,820.119 149.565,822.619 150.5,825C 149.563,825.692 148.897,825.525 148.5,824.5C 148.198,821.941 148.532,819.607 149.5,817.5 Z"/></g>
<g><path style="opacity:1" fill="#f3f8e7" d="M 162.5,816.5 C 162.719,817.675 162.386,818.675 161.5,819.5C 160.202,817.948 160.535,816.948 162.5,816.5 Z"/></g>
<g><path style="opacity:1" fill="#8e470b" d="M 91.5,816.5 C 92.4731,818.948 92.8064,821.615 92.5,824.5C 91.8333,823.167 91.1667,821.833 90.5,820.5C 91.2341,819.292 91.5674,817.959 91.5,816.5 Z"/></g>
<g><path style="opacity:1" fill="#8e470b" d="M 128.5,816.5 C 129.473,818.948 129.806,821.615 129.5,824.5C 128.833,823.167 128.167,821.833 127.5,820.5C 128.234,819.292 128.567,817.959 128.5,816.5 Z"/></g>
<g><path style="opacity:1" fill="#2d1918" d="M 90.5,820.5 C 89.9886,822.195 89.3219,823.861 88.5,825.5C 86.9103,822.83 87.577,821.163 90.5,820.5 Z"/></g>
<g><path style="opacity:1" fill="#2d1918" d="M 127.5,820.5 C 126.989,822.195 126.322,823.861 125.5,825.5C 123.91,822.83 124.577,821.163 127.5,820.5 Z"/></g>
<g><path style="opacity:1" fill="#787878" d="M 238.5,888.5 C 238.167,888.5 237.833,888.5 237.5,888.5C 237.389,887.883 237.056,887.383 236.5,887C 180.167,886.333 123.833,886.333 67.5,887C 66.944,887.383 66.6107,887.883 66.5,888.5C 66.1667,888.5 65.8333,888.5 65.5,888.5C 65.4142,887.504 65.7476,886.671 66.5,886C 123.5,885.333 180.5,885.333 237.5,886C 238.252,886.671 238.586,887.504 238.5,888.5 Z"/></g>
<g><path style="opacity:1" fill="#eeefee" d="M 237.5,888.5 C 180.5,888.5 123.5,888.5 66.5,888.5C 66.6107,887.883 66.944,887.383 67.5,887C 123.833,886.333 180.167,886.333 236.5,887C 237.056,887.383 237.389,887.883 237.5,888.5 Z"/></g>
</svg>
